<svg id="Capa_6" data-name="Capa 6" xmlns="http://www.w3.org/2000/svg" viewBox="0 0 389.76 392.94"><defs><style>.cls-1{fill:#51c75d;}</style></defs><title>texturas-motivos</title><path class="cls-1" d="M-327-91c-10.68-37.26-30.42-68.82-60-93.83-46.63-39.4-100.5-53.65-160.29-42.55-50.1,9.3-90.41,35.5-120,77C-699-105.93-709.42-56.45-699.51-2.82a181.12,181.12,0,0,0,21.13,57.41c1.87,3.28,2.64,6.45,1.34,10.24q-16,46.62-31.74,93.31c-.36,1.06-1.45,2.2-.25,3.28,1,1,2.23.3,3.38-.07,31.14-10,62.33-19.9,93.42-30.11a19.12,19.12,0,0,1,15.91,1.14,188,188,0,0,0,82.67,20c7.09-.36,12.94-.23,18.8-.82,38.9-3.88,73.91-17.31,104.24-42.23,24-19.7,43-43.45,54.75-72.2C-318.83-4.43-314.49-47.21-327-91ZM-367.9,30.06c-16.39,33-41.27,57.92-74.41,74.27-17.23,8.51-35.59,13.17-54.7,15.12-30.14,3.08-58.5-3.07-85.52-16.26a107.08,107.08,0,0,1-11.79-6.7c-3.48-2.27-6.86-2.29-10.63-1.06q-26,8.5-52,16.85c-.84.27-1.64,1-3.16.25,5.82-17.23,11.48-34.41,17.47-51.46,1.64-4.69,1.41-8.43-1.5-12.65a147.46,147.46,0,0,1-25.19-66.14c-5.88-47,6.36-89,36.89-125.25,22.5-26.72,51.33-43.64,85.14-52,19.36-4.77,39-5.19,58.71-2.26a157.78,157.78,0,0,1,57.34,19.82c19.85,11.66,36.13,27.18,49.63,45.69a148.34,148.34,0,0,1,27.47,66.07C-349.14-32.42-352.87-.23-367.9,30.06Z" transform="translate(709.58 231.03)"/><path class="cls-1" d="M-458.91,56.24c-7.37.15-14.17-1.71-20.83-4.09-18.33-6.54-36.41-13.7-52.37-25.1-20.31-14.5-36.41-33-50.45-53.51-9.6-14-18.14-28.41-22.71-45-5.44-19.73,2.27-44.59,18.33-57.35A18.87,18.87,0,0,1-572-133a44.74,44.74,0,0,0,5.17.35c6.73.08,8.74,1.35,11.1,7.52,4.89,12.79,9.65,25.63,14.59,38.4a11.13,11.13,0,0,1-1.43,11.28A122.15,122.15,0,0,1-554-62.07c-4.33,4.5-4.45,6.19-1.43,11.62,14.7,26.45,35.53,46.29,63.2,58.8,5.75,2.59,8.15,2.26,12.33-2.44,5.05-5.67,10-11.41,14.88-17.25,2.62-3.16,5.56-3.72,9.21-2.16C-441.61-7.44-428.28.34-414.78,7.81c2.71,1.5,3.13,4,3,6.87-.77,19.81-11.42,33.14-31.3,38.91C-448.29,55.1-453.53,56.75-458.91,56.24Z" transform="translate(709.58 231.03)"/></svg>