<svg id="Capa_6" data-name="Capa 6" xmlns="http://www.w3.org/2000/svg" xmlns:xlink="http://www.w3.org/1999/xlink" viewBox="0 0 201 201.1"><defs><style>.cls-1{fill:url(#Degradado_sin_nombre_38);}.cls-2{fill:url(#Degradado_sin_nombre_38-2);}.cls-3{fill:url(#Degradado_sin_nombre_41);}</style><linearGradient id="Degradado_sin_nombre_38" x1="1106.1" y1="414.94" x2="1276.15" y2="244.89" gradientUnits="userSpaceOnUse"><stop offset="0.01" stop-color="#ffa041"/><stop offset="0.5" stop-color="#f82c84"/><stop offset="1" stop-color="#a43cad"/></linearGradient><linearGradient id="Degradado_sin_nombre_38-2" x1="1153.02" y1="368.04" x2="1229.38" y2="291.68" xlink:href="#Degradado_sin_nombre_38"/><linearGradient id="Degradado_sin_nombre_41" x1="1237.43" y1="283.71" x2="1253.82" y2="267.31" gradientUnits="userSpaceOnUse"><stop offset="0" stop-color="#f82c84"/><stop offset="1" stop-color="#a43cad"/></linearGradient></defs><title>Instagram-icon</title><path class="cls-1" d="M1191.1,430.2c-15.5,0-31-.4-46.5.1-28,.9-53.3-21.6-53.6-50.5-.4-34.5-.5-69,.4-103.4.5-22.4,21.2-43.4,43.5-46.1,5-.6,10-.9,14.9-1,29.5,0,59-.1,88.5,0a52.9,52.9,0,0,1,51.8,40.5,51.1,51.1,0,0,1,1.5,12.3q.2,47.7.1,95.4a52.4,52.4,0,0,1-52.6,52.7C1223.1,430.3,1207.1,430.2,1191.1,430.2Zm.1-18.9h47c19.3,0,34.2-14,34.5-33.3.3-32.1.3-64.3-.1-96.4-.2-17.6-13.3-32.3-30.7-32.7-34.1-.8-68.3-.7-102.4,0-15.9.3-29.6,15.8-29.7,31.7q-.3,49.2,0,98.4c.1,17.5,15.4,32.3,32.9,32.3Z" transform="translate(-1090.7 -229.3)"/><path class="cls-2" d="M1244.9,330c1.1,28-23.4,54.3-54.2,53.9a53.9,53.9,0,0,1,.5-107.8C1221.4,276.2,1244.9,299.7,1244.9,330Zm-18.7.1a35.3,35.3,0,0,0-35.1-35.3c-18.9,0-35,16-35.2,35s16.3,35.4,35.4,35.3A35.3,35.3,0,0,0,1226.2,330.1Z" transform="translate(-1090.7 -229.3)"/><path class="cls-3" d="M1256.9,275.5c0,6.9-4.6,11.5-11.5,11.4a11.4,11.4,0,0,1,.4-22.8C1252.5,264.2,1256.9,268.8,1256.9,275.5Z" transform="translate(-1090.7 -229.3)"/></svg>