<svg id="Capa_3" data-name="Capa 3" xmlns="http://www.w3.org/2000/svg" viewBox="0 0 618.08 618.28"><defs><style>.cls-1{fill:#aae2d3;}.cls-2{fill:#fecb8c;}.cls-3{fill:#42c9d7;}.cls-4{fill:#4e3f2b;}.cls-5{fill:#32281c;}.cls-6{fill:#e3fdf6;}.cls-7{fill:#e2fcf5;}.cls-8{fill:#f8f8f8;}</style></defs><title>Perronautas_Logo</title><path class="cls-1" d="M1044.51,781.78a40.82,40.82,0,0,0-1.68-15.1c-2.29-7.13-6.07-10-13.54-10.18-1.91,0-3.49.35-3.49-2.58,0-20-1.25-40,2.9-59.77,1.88-9,5-17.56,8.41-26.08,6-15.13,16.5-26.34,29.84-35.27,15.8-10.59,32.71-19.23,49.27-28.48A385.94,385.94,0,0,0,1149.44,584a26.16,26.16,0,0,0,7.53-7.21c13.06-20.78,18.17-43.35,14.94-67.74a22.68,22.68,0,0,0-3.26-8.84c-2.8-4.57-6.55-7.25-12.33-6.77-16.63,1.37-32.93,4.85-49.34,7.57-12.65,2.1-25.31,4.12-38,6.18a24.88,24.88,0,0,1-11.78-1.22A124.74,124.74,0,0,1,1027,492c-20-13-41.62-14.88-64.29-10.86-4.5.8-6.32.44-6.14-4.94.28-8.24-2.79-11.52-11.19-12.22-15.9-1.33-31.65-.51-46.54,6.1-1.84.81-2.89.72-4.35-.58-7.39-6.59-15.72-7.26-24.67-3.66a132.4,132.4,0,0,0-27.69,15.76c-16.15,11.58-21,27.54-18.89,46.46,1.71,15.26,8.48,28.58,15.86,41.67.81,1.43,2.4,2.49.74,4.75-17,23.15-31,48-43.69,73.76-4.77,9.7-9.66,19.34-14.32,29.09-1.13,2.37-2.1,4-5.1,3a6.68,6.68,0,0,0-5.83.56c-4.71,3.58-6,.18-7.73-3.16-37.28-73.83-37.59-148.15,1.37-220.77,36.77-68.53,95.35-109.42,172.35-121.34,122.47-19,236.21,57.41,266.29,177.41,25.38,101.24-21.9,203.51-116.28,251.61a260.8,260.8,0,0,1-32,13.84C1051.55,779.57,1048.23,780.57,1044.51,781.78Z" transform="translate(-674.96 -241.86)"/><path class="cls-2" d="M918.94,534.63a315.15,315.15,0,0,1-7.15,55.4,40.06,40.06,0,0,1-6.47,15c-4.14,5.69-7.84,6.78-14.25,4.11a49.94,49.94,0,0,1-7.06-3.7c-25.67-16-42.57-38.83-51.84-67.44a57.55,57.55,0,0,1-2.23-24.22c1-9.07,4.61-17,11.8-23,10.45-8.69,21.63-16,34.86-19.9,6-1.75,11.14-.53,15.95,3.12a60.84,60.84,0,0,1,14,15.51c1.19,1.82,2,2.4,4.59,1.75,9.72-2.45,19.78-2.67,29.73-3.44,16.12-1.25,32.28-1.51,48.44-1.68,8.81-.09,16.67,2.69,24.29,6.64,8.56,4.45,17.17,8.82,25.68,13.38a60.92,60.92,0,0,0,43.39,6.14c15.76-3.46,31.77-5.76,47.68-8.52,1.75-.3,3.57-1,5.33.07-2.16,8.57-1.11,10.92,7,15.56,6.34,3.64,13.33,6,19.41,10.23,2.43,1.67,3.31,3.33,3,6.54-.77,7.12-3.58,12.09-10,15.91-12.89,7.64-25.83,15.14-39.14,22-10.27,5.31-21.58,6.41-33.33,8.75,10.92,3,20.75,1.46,30.19-2.78,14.75-6.62,28.72-14.72,42.42-23.29a17.57,17.57,0,0,1,4.66-2.26c-3,9.05-6.06,18-14.43,23.82-14.1,9.82-29.16,18-44.21,26.25q-17.73,9.7-35,20.28c-28.87,17.79-41.85,44.61-44.28,77.35-1.27,17.15-.14,34.31,1.3,51.42.16,1.94.5,3.18-2.18,3.93-53,14.87-104.51,10.4-154.55-11.91-24.69-11-45.08-28.17-64.16-47-4.86-4.8-9.68-9.67-15.23-13.69-1.6-1.16-2.09-2.08-1.14-4,17.38-35.39,34.44-70.94,58.27-103.41,6.47,10.15,15.31,17.82,24.42,25.22,5.83,4.74,11.86,9.2,18.79,12.22,10.57,4.62,18.21,2.4,24.4-7.4,6.66-10.56,9-22.55,9.84-34.72a192.45,192.45,0,0,0-1.07-35.42c-.51-1-.11-2.14-.54-3.13C919.52,533.21,919.29,534.4,918.94,534.63Z" transform="translate(-674.96 -241.86)"/><path class="cls-3" d="M966.9,802.32c-63.29,3-119.18-17.21-169.55-54.39-12-8.83-22.78-18.92-30.28-32.11-4.72-8.29-3.49-15.94,1.87-23.29,3.81-5.22,6.39-5.74,11.73-2.09,8,5.49,14.57,12.66,21.47,19.41,29.7,29,64.15,49.48,105,58.37,37.71,8.2,75.28,8.67,112.65-2a4.77,4.77,0,0,1,1-.28c4.4-.35,9.17-3.86,13.09.58,3.77,4.27,3.49,14.62-.06,19.93s-8.88,7.92-14.59,9.95c-11.91,4.23-24.37,5.2-36.84,5.85C977.24,802.55,972.06,802.32,966.9,802.32Z" transform="translate(-674.96 -241.86)"/><path class="cls-2" d="M935.15,470.29c2.49,0,5-.08,7.48,0,8,.3,8.74,1,10.91,8.69.78,2.74-.07,3.28-2.64,3.68-13.13,2-26.23,4.26-39.33,6.54-2.26.39-3.63.15-4.66-2.22a44.83,44.83,0,0,0-4.84-8.67c-1.88-2.57-.93-3.22,1.54-3.95C913.91,471.34,924.49,470.51,935.15,470.29Z" transform="translate(-674.96 -241.86)"/><path class="cls-4" d="M918.94,534.63a2.83,2.83,0,0,1,.46-3c1.59,1.79,1.41,3.86,1.2,5.93C920.05,536.59,919.5,535.61,918.94,534.63Z" transform="translate(-674.96 -241.86)"/><path class="cls-5" d="M989.75,657.41v-1.75h3.45C992.59,657.77,991.1,657.44,989.75,657.41Z" transform="translate(-674.96 -241.86)"/><path class="cls-6" d="M1134.6,445.4c-1.78-.5-2.77-1.93-3.87-3.09-20.13-21.21-42.94-38.69-69.8-50.64a46.34,46.34,0,0,1-7.82-4.36c-3.76-2.66-4.71-7.75-2.67-12.09s5.7-5.25,10-4.45a17.8,17.8,0,0,1,4.25,1.4c30.53,14.46,53.77,36.36,68.3,67.1a40.76,40.76,0,0,1,1.79,4.64C1134.93,444.32,1134.68,444.86,1134.6,445.4Z" transform="translate(-674.96 -241.86)"/><path class="cls-7" d="M1020.74,371.36c-5.17-1-11-2.44-15.69-6.47-2.92-2.51-3.11-5.71-1.78-9.09,1.56-4,4.42-6.33,8.78-6a27.46,27.46,0,0,1,11.86,3.47,10.29,10.29,0,0,1,1.68,16.56A6.25,6.25,0,0,1,1020.74,371.36Z" transform="translate(-674.96 -241.86)"/><path class="cls-8" d="M1007.91,521.31c-1.27,4-2,7.19-1.1,10.92,3.1-2.39,6.41-3.72,9.3-.4,2.74,3.13,2.75,6.77,0,9.95-1.38,1.59-.73,2,.64,2.76,6.17,3.53,12.17,1.13,16.18-6.53,2.19,7.54-.78,13.22-8.17,15-7.89,1.86-14.83,0-20.35-6.2-4.74-5.3-6.13-11.28-3.56-18A12.25,12.25,0,0,1,1007.91,521.31Z" transform="translate(-674.96 -241.86)"/><path d="M959,811.06c-64.69.75-121-21.64-171.58-60.51C777,742.6,768,733.34,761,722.13c-6.11-9.84-7.33-19.75-1.91-30.31.67-1.31.13-3.79-.7-5.25A227.53,227.53,0,0,1,729.09,596c-7.66-75.31,13.43-141.72,66.25-195.84,65.83-67.45,146.82-90.93,237.89-67.65C1125,356,1184.47,416.2,1209.49,507.74c29.32,107.31-21.5,215.59-123,265.5-13.67,6.72-28.39,11.34-42.62,16.93-1.53.6-3.54.81-4.5,1.91-9.92,11.56-23.64,14.61-37.61,16.19C987.58,809.87,973.23,810.18,959,811.06Zm85.61-29.72c4.64-1.57,9-2.75,13.11-4.49,9.65-4.07,19.43-8,28.75-12.71,92.68-47.19,139.95-146.69,117.25-246.43-28.33-124.48-147.19-203.45-273.1-181.44C791.9,360.51,705.1,501,745.5,635.91a203.25,203.25,0,0,0,19.81,45.83L780,679.27c17.7-36.21,35.52-73.44,60.19-106.64-8.07-14.06-15.7-28-17.54-44.07-1.72-15.13,0-29.49,11.49-40.77a102.43,102.43,0,0,1,37.12-23c7.8-2.85,15.21-1.9,21.6,3.48,2.49,2.09,4.3,1.77,7.05.7,15.4-6,31.4-6.95,47.68-4.95,4.84.6,7.4,3.57,8.19,8.12.51,2.9.57,5.88.86,9.19,2-.26,3.83-.43,5.6-.71,22.71-3.67,44.24-1.93,64.39,11,9.14,5.86,19.67,9.72,29.87,13.71a27.86,27.86,0,0,0,13.14,1.17c12.38-1.58,24.66-3.92,37-5.84q24.42-3.81,48.87-7.43c6.14-.91,10.26,2.16,13,7.29a25,25,0,0,1,2.91,7.91c3.52,24.73-1.61,47.66-15.16,68.61a23.26,23.26,0,0,1-7.21,6.78c-14.18,8.72-28.5,17.21-42.82,25.7-13.18,7.8-26.57,15.26-39.6,23.3a73.83,73.83,0,0,0-31.23,38.44c-4.77,13-9.1,26.17-9.29,40.2-.2,14.77,0,29.55,0,44.33C1041.8,756.15,1043.51,764.52,1044.56,781.34Zm90.88-278c-1.81.15-3.14.15-4.43.38-13.93,2.45-28,4.19-41.75,7.58-20.35,5-39.11,2.47-57.08-8.18a226.32,226.32,0,0,0-23.05-11.93c-4.94-2.2-10.47-4.63-15.66-4.46-26.61.86-53.19,2.49-79.78,4-1.82.1-3.59,1.34-4.64,1.75-5.63-6.06-11-12.37-17-18.1-4.35-4.18-9.84-5-15.85-3.34-10.83,2.94-19.94,9-29.09,15.11-15.26,10.27-20,24.84-17.11,42.2,3.76,22.34,14.33,41.63,30.05,57.54,8.44,8.53,18.73,15.44,28.9,22,7.43,4.77,13,3,16.78-5.08a89.38,89.38,0,0,0,7.28-23.14c2.67-16.37,4.22-32.92,6.2-49.14a11.67,11.67,0,0,1,.65,2.77c.49,14.46,1.76,29,1.07,43.38-.51,10.9-3.34,21.76-9.54,31.21-6.34,9.67-14.19,12.42-24.41,7.18a116.34,116.34,0,0,1-21.48-14.4c-8-6.64-15-14.34-22.48-21.56-12.35,14.47-54.52,90.53-57.71,104.35,75,90.18,182.73,91.64,235.87,73.24,0-18.7-1-37,.22-55.26,2-30.92,13.88-57.15,41-74.43,11.79-7.5,24-14.34,36-21.46,15.33-9.07,30.78-17.94,46-27.25,8.6-5.28,11.6-14.39,15.38-24.41-2.61,1.6-4,2.52-5.42,3.31C1140,565,1125.66,573.24,1111,580.63c-8.87,4.46-18.55,5.22-29.21,2.28,8.9-1.93,17.58-2.16,24.64-5.66,18.29-9.08,36.13-19.17,53.5-29.91,3.12-1.92,3.68-8.79,4.28-13.52.21-1.6-2.83-4.16-4.92-5.37-6.18-3.59-12.79-6.45-18.93-10.09C1133.34,514.24,1132.54,511.29,1135.44,503.33ZM964.14,802.4c9.31-.42,18.73-.13,27.92-1.43a188.07,188.07,0,0,0,30.5-6.92c4.21-1.34,8-5.28,11-8.9,3.37-4.18,2.82-15-.35-18.55-3.86-4.29-8.39-.84-12.63-.49a2.22,2.22,0,0,0-.49.13c-26.12,7.09-52.59,10-79.64,7.31-28.06-2.78-55.12-9.06-80.61-21.5-25.21-12.31-46.26-30.07-66.06-49.56a131.46,131.46,0,0,0-14-12c-4.73-3.51-7.43-2.84-10.94,1.94-5.55,7.53-6.5,15.33-1.61,23.75C774,727.74,783.29,737,793.8,745,844.08,783.27,900.18,804.42,964.14,802.4ZM899.9,474.6c2.09,3.56,3.88,5.69,4.69,8.15,1.87,5.65,5.15,6.67,10.83,5.49,12.45-2.61,25.06-4.42,37.59-6.55-1.43-10.12-2.54-11.24-11.72-11.35a124.28,124.28,0,0,0-15.45.35C917.36,471.66,908.94,473.21,899.9,474.6Z" transform="translate(-674.96 -241.86)"/><path d="M1253.32,551.57h7.7C1270.3,666,1198,806.7,1047.93,849s-306.27-39.7-356.59-185.84c-50.61-147,20.58-300.41,151.49-361.7,3.91,6.27,3.74,6.64-2.38,9.88-85.47,45.16-138,115.2-153.64,210.52-24.45,148.62,71.61,289.56,218.3,323.2,157.07,36,315-67.42,343.94-225.38a285.05,285.05,0,0,0,4.12-33.69C1253.87,574.75,1253.32,563.41,1253.32,551.57Z" transform="translate(-674.96 -241.86)"/><path d="M1125.26,293q-10.47,16.85-21,33.7c-.88,1.42-1.87,2.77-2.63,4.24-1.69,3.27-3.7,3.3-6.38.63,10.51-16.94,21-33.9,31.61-50.77.59-.95,2.59-1.84,3.5-1.52s1.82,2.2,1.81,3.38c-.14,12.81-.5,25.61-.73,38.41-.09,5.31,0,10.62,0,16.92,1.35-1.93,2.29-3.15,3.1-4.46,7-11.3,14.07-22.58,21-33.93,1.78-2.92,3.58-3.79,6.47-.66l-23.78,38.35c-2.1,3.39-4,6.92-6.39,10.12-1.21,1.65-3.21,2.72-4.85,4.05-.58-1.88-1.68-3.77-1.66-5.65.18-16.3.56-32.6.87-48.9,0-1.16,0-2.32,0-3.48Z" transform="translate(-674.96 -241.86)"/><path d="M1069.41,321.39c-9.47,0-16.86-5.23-20.06-14.29-5.2-14.69.91-35.17,13.37-44.56,7.79-5.86,16.41-7.6,25.27-3.24,9.75,4.81,12.34,14.17,12.16,24-.23,12-4.58,22.71-13.65,31.07A25.12,25.12,0,0,1,1069.41,321.39Zm-16-27a29.09,29.09,0,0,0,0,4.48c1.23,7.67,4.44,14.15,12.27,16.78,7.26,2.43,13-1.22,17.84-6.13a35.58,35.58,0,0,0,10.49-30c-.82-7.5-4.24-13.79-11.77-16.58s-13.4.93-18.37,5.88C1056.92,275.78,1053.55,284.51,1053.44,294.4Z" transform="translate(-674.96 -241.86)"/><path d="M1026.5,281.32l9.58,28.51c-3.76.85-5.95.21-7.08-3.54-2-6.52-4.61-12.85-6.46-19.4-1.22-4.35-3-7.15-8-6.77-1.59.12-3.23-.46-5.4-.82-1.35,8.78-2.65,17.24-4,26.18l-5.23-.23c3.12-21.19,6.17-41.86,9.34-63.39,7.15,1.34,14.16,1.94,20.67,4,8,2.57,11.07,12.16,8.14,22.6C1036.37,274.37,1033.27,279.12,1026.5,281.32Zm-12.86-33.17c-1.3,9-2.5,17.32-3.79,26.21,7.11-.27,14,5.23,19.74-1.66,4-4.76,5.29-10.53,2.74-16.37C1028.83,248.32,1021,249.56,1013.64,248.15Z" transform="translate(-674.96 -241.86)"/><path d="M991.39,304.86c-4.25,1.61-6.44.17-8.18-3.42-2.9-6-6.47-11.64-9.32-17.64-1.85-3.88-4.16-5.68-8.52-4.57-1.71.44-3.58.24-5.66.34V306l-4.6.36c-.55-21.31-1.08-42.23-1.62-63.43,7.16,0,14.4-.43,21.55.16,4.57.37,7.54,3.93,9.36,8.14a23,23,0,0,1-7.12,27.56Zm-32.33-30.44c7.49-1.23,15.24,2.24,19.85-5.55,3.24-5.49,3.21-11.31-.5-16.51-5-7-12.42-4.51-19.35-4.59Z" transform="translate(-674.96 -241.86)"/><path d="M1243.39,504.28a70.24,70.24,0,0,0-6.79,5.09,13.37,13.37,0,0,0-1.77,17.72c3.18,4.49,9.36,6.59,14.09,3.65,3-1.86,5.42-5.27,7-8.52,2.17-4.43,3-9.51,5-14.08,3.15-7.37,9.68-10.38,19-9.33A14.07,14.07,0,0,1,1292.49,510c1.8,8.07-.83,15-7.66,18.88-1.21.7-3.29-.12-5-.24.55-1.39.7-3.36,1.72-4.08,9.1-6.39,6.54-16.08-.15-19.6-5.64-3-12.44-.28-15.1,6.22-1.89,4.6-3.1,9.48-4.87,14.13-3.54,9.31-9.27,12.58-20.06,11.7-7.44-.61-12.74-5.25-14.25-12.47-2-9.63,1.54-18,9.3-22.27C1239.48,500.55,1241.69,500.83,1243.39,504.28Z" transform="translate(-674.96 -241.86)"/><path d="M1225.52,358.69c-9.39,6.9-18.8,13.49-27.82,20.56a61.62,61.62,0,0,0-11.53,11.57c-3.94,5.35-3.19,10.6.89,15.57,3.9,4.73,8.67,6.2,14.76,3.78a54.13,54.13,0,0,0,10.89-6c8.72-6.12,17.24-12.53,25.85-18.82.94-.68,1.87-1.73,2.9-1.86a4,4,0,0,1,3.27,1.09c.44.61,0,2.66-.75,3.17-11.74,8.48-23.36,17.16-35.53,25-3.81,2.45-9.18,3.44-13.82,3.41a17.18,17.18,0,0,1-15-25.41,45,45,0,0,1,11.37-13c9-7.33,18.72-13.88,28.06-20.85C1221.7,354.93,1223.76,354.49,1225.52,358.69Z" transform="translate(-674.96 -241.86)"/><path d="M1212.29,458.93h68c-1.18,2.17-1.51,3.65-2.43,4.32q-25.66,18.56-51.47,36.91a3.33,3.33,0,0,1-1.11.23c-2.89-3-1.93-5,1.34-7.2,7.34-4.95,7.25-5.09,4.65-13.56-.59-1.91-1.2-3.8-1.8-5.7-3.17-10.14-3.17-10-13.87-11.05-1.5-.14-2.86-1.83-4.28-2.8Zm20,4.64c2.21,7,4.32,13.72,6.6,21l29.66-21Z" transform="translate(-674.96 -241.86)"/><path d="M855.39,266.13c5.53-2,10.77-4.1,16.15-5.75,7.8-2.4,14.42.14,19,7a29.16,29.16,0,0,1,4.76,20.44c-.73,5.65-4.22,9.25-9.43,11.24-3.84,1.46-7.71,2.86-11.94,4.43,2.3,6.47,4.58,12.5,6.53,18.63.37,1.14-.56,2.68-.89,4-1.33-.72-3.47-1.15-3.87-2.22-6.87-18.54-13.53-37.15-20.22-55.76A9.31,9.31,0,0,1,855.39,266.13Zm6.37,3.86c3.55,9.76,6.76,18.56,10.15,27.86C878.74,294.18,888,295,890,285.79c1.62-7.21-1.39-13.54-7.09-18.07C875.47,261.78,869.32,269,861.76,270Z" transform="translate(-674.96 -241.86)"/><path d="M1196.41,326c-5.15,11.16-10.07,21.83-15,32.5-3.69,8-7.29,16-11.19,23.92-.76,1.53-3.19,3.75-4.07,3.44-3.49-1.23-1.84-3.81-.75-6.07,1.23-2.53,2.39-5.1,3.71-7.93-5.75-5.39-11.37-10.8-17.21-16-.87-.77-3-.83-4.21-.38-2.31.85-4.29,2.7-6.62,3.4-1.67.49-3.69-.21-6.58-.46C1141.74,352,1192.06,325.45,1196.41,326Zm-24.73,40.53L1186.54,335l-.85-.7-30.4,17Z" transform="translate(-674.96 -241.86)"/><path d="M905.1,249.6l28.82-5.45c.33,1.77.61,3.29,1,5.35l-23.55,4.66c1.36,7.23,2.67,14.18,4.08,21.73,5.91-1.07,11.54-2.26,17.23-3,1.45-.19,4,.65,4.45,1.68,1.26,3.07-1.56,3.37-3.62,3.78-5.51,1.08-11,2.05-17,3.15,1.58,8.37,3.07,16.29,4.66,24.74L945,302c.31,1.92.53,3.33.74,4.64-.44.34-.67.66-1,.72-8.3,1.67-16.6,3.41-24.95,4.83-1,.17-3.16-1.3-3.35-2.29C912.6,290,908.93,270.1,905.1,249.6Z" transform="translate(-674.96 -241.86)"/><path d="M1271.35,433.68l-5.64,2.27-6.84-13.5-34.23,16.63c-4.63,2.25-9.17,4.71-13.91,6.68-1.55.64-4.65.76-5.27-.12-2-2.85,1.06-3.41,2.87-4.29,15.94-7.81,31.9-15.59,48.25-23.57l-6.37-13.67c3.24-2.75,5.42-3.2,7.48,1.38C1261.83,414.72,1266.48,423.72,1271.35,433.68Z" transform="translate(-674.96 -241.86)"/><path d="M1057.91,365.78c2.85.85,5.87,1.35,8.52,2.61,30.79,14.66,54.36,36.79,69.31,67.68a42.53,42.53,0,0,1,3.39,9.85,5.6,5.6,0,0,1-1.81,4.6c-.86.66-3.21.11-4.46-.64a26,26,0,0,1-5.29-4.51c-19.86-20.78-42.15-38.17-68.61-49.86a51.8,51.8,0,0,1-8.69-4.87c-5.07-3.52-6.83-10-4.72-16.06C1047.47,369.09,1051.88,366.07,1057.91,365.78Zm75.89,79.54.9-.51c-1-2.53-1.86-5.15-3.07-7.59-14.56-29.49-37.18-50.72-66.67-64.87a23,23,0,0,0-4.7-1.65c-4.94-1.14-8.58.52-10.39,4.59-2,4.41-.87,9.35,3,12a51.51,51.51,0,0,0,8.28,4.6c26.62,11.74,49,29.23,69,50.15C1131.29,443.23,1132.58,444.23,1133.8,445.32Z" transform="translate(-674.96 -241.86)"/><path d="M1185.84,622.19c-1.58,4.36-2.79,8.17-4.33,11.84-15.19,36.1-34.89,69-67.75,92-10.71,7.47-22.65,13.2-34,19.68A10.25,10.25,0,0,1,1076,747a2.84,2.84,0,0,1-2.35-1.18c-.27-.59.32-1.75.8-2.47.33-.48,1.12-.68,1.73-.93,40.67-17,69.79-46.31,89.58-85.19,5.78-11.38,10.27-23.41,15.48-35.09.5-1.12,1.88-1.84,2.85-2.74C1184.71,620.42,1185.34,621.41,1185.84,622.19Z" transform="translate(-674.96 -241.86)"/><path d="M754.29,573c.39-33.56,4.72-58.81,14.77-83a8.06,8.06,0,0,1,1-2.26c1.28-1.43,2.72-2.72,4.1-4.06,0,1.89.5,4-.18,5.65-13.28,31.18-17.32,63.66-14.1,97.22,1.87,19.43,5.17,38.56,11.64,57.06.42,1.17-.44,2.78-.7,4.19-1.12-1-2.91-1.77-3.26-3-2.83-9.73-6.21-19.4-7.85-29.34C757,599,755.43,582.25,754.29,573Z" transform="translate(-674.96 -241.86)"/><path d="M1033.59,360.55c-.86,11.22-8,16.86-18.23,13.8a51.2,51.2,0,0,1-12.22-5.41c-4.72-2.92-6.3-7.66-4.83-13.06s4.55-9.59,10.36-10.18c7.54-.76,14.7,1.11,20.25,6.46C1031.13,354.28,1032.07,357.72,1033.59,360.55ZM1020,372c2.35-1,3.71-1.29,4.71-2,5.22-3.88,5.21-13.06-.47-16.14a40.75,40.75,0,0,0-13.12-4c-4-.62-6.78,2.12-8.25,5.86-1.33,3.38-1.4,7,1.83,9C1009.69,367.57,1015.2,369.73,1020,372Z" transform="translate(-674.96 -241.86)"/><path d="M799.75,442.64c-.83,1.05-1.56,1.92-2.21,2.84-3.42,4.84-6.75,9.74-10.27,14.49-.83,1.13-2.3,1.77-3.48,2.64-.11-1.56-.9-3.57-.22-4.61,3.72-5.62,7.74-11,11.81-16.41.53-.69,2-.9,3-.88C798.82,440.72,799.24,441.88,799.75,442.64Z" transform="translate(-674.96 -241.86)"/><path d="M1019,556.75c-14.6,0-25.68-12.68-22.82-26.15,2.16-10.14,10.21-15.41,20.38-13.32,9.22,1.89,18.39,11.54,19.87,20.9C1038.21,549.6,1031.51,556.75,1019,556.75Zm-13.35-24.43c.46-4.32.8-7.45,1.14-10.58a16.51,16.51,0,0,0-6.26,6.78c-3,6.81-1.29,13,3.68,18.37,5.63,6.08,12.59,7.82,20.45,5.77,7-1.81,9.71-7,7.9-14.38-5.47,8.43-11.15,9.89-17.86,4.57,3.09-3.29,4.07-7,1.24-10.79C1013.24,528.46,1009.88,529.64,1005.63,532.32Z" transform="translate(-674.96 -241.86)"/><path d="M993.1,655.81c-20.65,10.07-48.68.52-56.88-17.58,7.82,4.23,16.19,10.44,25.59,13.39C971.45,654.65,982.08,654.48,993.1,655.81Z" transform="translate(-674.96 -241.86)"/></svg>